<svg xmlns="http://www.w3.org/2000/svg" viewBox="0 0 40 40" fill="none">
  <rect width="40" height="40" rx="8" fill="#16100A"/>
  <path d="M 7 28 A 15 15 0 0 1 33 28" stroke="#F6F0E2" stroke-width="1.5" stroke-linecap="round"/>
  <path d="M 10 27 A 12 12 0 0 1 30 27" stroke="#F6F0E2" stroke-width="0.7" stroke-linecap="round" opacity="0.4"/>
  <line x1="7" y1="28" x2="7" y2="28" stroke="#D96845" stroke-width="1.4" stroke-linecap="round"/>
  <line x1="20" y1="13" x2="20" y2="28" stroke="#D96845" stroke-width="1.4" stroke-linecap="round"/>
  <line x1="33" y1="28" x2="33" y2="28" stroke="#D96845" stroke-width="1.4" stroke-linecap="round"/>
  <line x1="7" y1="26.3" x2="7" y2="29.7" stroke="#D96845" stroke-width="1.4" stroke-linecap="round"/>
  <line x1="13.3" y1="18.7" x2="14.9" y2="20.3" stroke="#F6F0E2" stroke-width="0.8" stroke-linecap="round" opacity="0.5"/>
  <line x1="26.7" y1="18.7" x2="25.1" y2="20.3" stroke="#F6F0E2" stroke-width="0.8" stroke-linecap="round" opacity="0.5"/>
  <line x1="10.2" y1="26.3" x2="10.2" y2="27.7" stroke="#F6F0E2" stroke-width="0.8" stroke-linecap="round" opacity="0.5"/>
  <line x1="29.8" y1="26.3" x2="29.8" y2="27.7" stroke="#F6F0E2" stroke-width="0.8" stroke-linecap="round" opacity="0.5"/>
  <line x1="33" y1="26.3" x2="33" y2="29.7" stroke="#D96845" stroke-width="1.4" stroke-linecap="round"/>
  <circle cx="20" cy="28" r="2" fill="#D96845"/>
</svg>
